<mxfile host="app.diagrams.net" modified="2023-10-05T12:41:08.445Z" agent="Mozilla/5.0 (X11; Linux x86_64; rv:109.0) Gecko/20100101 Firefox/118.0" etag="uBXTa8DhEobgiKMpzO-8" version="22.0.2" type="device">
  <diagram name="Page-1" id="g5ryKe6Jy8ZNZpoAp7AQ">
    <mxGraphModel dx="1968" dy="1192" grid="1" gridSize="10" guides="1" tooltips="1" connect="1" arrows="1" fold="1" page="1" pageScale="1" pageWidth="850" pageHeight="1100" math="0" shadow="0">
      <root>
        <mxCell id="0" />
        <mxCell id="1" parent="0" />
        <mxCell id="R8LKBf7fdfrHrlQRSJYs-1" value="&lt;b&gt;&lt;font style=&quot;font-size: 16px;&quot;&gt;fsn1&lt;/font&gt;&lt;/b&gt;&lt;br&gt;Falkenstein&lt;br&gt;DE" style="ellipse;whiteSpace=wrap;html=1;aspect=fixed;fillColor=#FFCCCC;" parent="1" vertex="1">
          <mxGeometry x="445" y="370" width="80" height="80" as="geometry" />
        </mxCell>
        <mxCell id="R8LKBf7fdfrHrlQRSJYs-2" value="&lt;b&gt;&lt;font style=&quot;font-size: 16px;&quot;&gt;nbg1&lt;/font&gt;&lt;/b&gt;&lt;br&gt;Nuremberg&lt;br&gt; DE" style="ellipse;whiteSpace=wrap;html=1;aspect=fixed;fillColor=#FFE6CC;" parent="1" vertex="1">
          <mxGeometry x="530" y="500" width="80" height="80" as="geometry" />
        </mxCell>
        <mxCell id="R8LKBf7fdfrHrlQRSJYs-4" value="" style="endArrow=classic;html=1;rounded=0;startArrow=classic;startFill=1;" parent="1" source="R8LKBf7fdfrHrlQRSJYs-2" target="R8LKBf7fdfrHrlQRSJYs-1" edge="1">
          <mxGeometry width="50" height="50" relative="1" as="geometry">
            <mxPoint x="440" y="740" as="sourcePoint" />
            <mxPoint x="490" y="690" as="targetPoint" />
          </mxGeometry>
        </mxCell>
        <mxCell id="R8LKBf7fdfrHrlQRSJYs-23" value="&lt;font style=&quot;font-size: 16px;&quot;&gt;&lt;b&gt;&amp;nbsp;3 &lt;br&gt;&lt;/b&gt;&lt;/font&gt;" style="edgeLabel;html=1;align=center;verticalAlign=middle;resizable=0;points=[];rotation=0;" parent="R8LKBf7fdfrHrlQRSJYs-4" vertex="1" connectable="0">
          <mxGeometry x="0.0025" y="-1" relative="1" as="geometry">
            <mxPoint x="-3" y="1" as="offset" />
          </mxGeometry>
        </mxCell>
        <mxCell id="R8LKBf7fdfrHrlQRSJYs-5" value="&lt;b&gt;&lt;font style=&quot;font-size: 16px;&quot;&gt;hel1&lt;/font&gt;&lt;/b&gt;&lt;br&gt;Helsinki&lt;br&gt;FI" style="ellipse;whiteSpace=wrap;html=1;aspect=fixed;fillColor=#D5E8D4;" parent="1" vertex="1">
          <mxGeometry x="600" y="150" width="80" height="80" as="geometry" />
        </mxCell>
        <mxCell id="R8LKBf7fdfrHrlQRSJYs-6" value="&lt;b&gt;&lt;font style=&quot;font-size: 16px;&quot;&gt;hil&lt;/font&gt;&lt;/b&gt;&lt;br&gt;Hillsboro&lt;br&gt;US (west)" style="ellipse;whiteSpace=wrap;html=1;aspect=fixed;fillColor=#D4E1F5;" parent="1" vertex="1">
          <mxGeometry x="-10" y="280" width="80" height="80" as="geometry" />
        </mxCell>
        <mxCell id="R8LKBf7fdfrHrlQRSJYs-7" value="&lt;b&gt;&lt;font style=&quot;font-size: 16px;&quot;&gt;ash&lt;/font&gt;&lt;/b&gt;&lt;br&gt;Ashburn&lt;br&gt;US (east)" style="ellipse;whiteSpace=wrap;html=1;aspect=fixed;fillColor=#A9C4EB;" parent="1" vertex="1">
          <mxGeometry x="80" y="480" width="80" height="80" as="geometry" />
        </mxCell>
        <mxCell id="R8LKBf7fdfrHrlQRSJYs-9" value="" style="endArrow=classic;html=1;rounded=0;startArrow=classic;startFill=1;" parent="1" source="R8LKBf7fdfrHrlQRSJYs-7" target="R8LKBf7fdfrHrlQRSJYs-1" edge="1">
          <mxGeometry width="50" height="50" relative="1" as="geometry">
            <mxPoint x="633" y="560" as="sourcePoint" />
            <mxPoint x="400" y="446" as="targetPoint" />
          </mxGeometry>
        </mxCell>
        <mxCell id="R8LKBf7fdfrHrlQRSJYs-30" value="&lt;b&gt;&lt;font style=&quot;font-size: 16px;&quot;&gt;&amp;nbsp;98&lt;/font&gt;&lt;/b&gt;" style="edgeLabel;html=1;align=center;verticalAlign=middle;resizable=0;points=[];" parent="R8LKBf7fdfrHrlQRSJYs-9" vertex="1" connectable="0">
          <mxGeometry x="-0.1442" y="1" relative="1" as="geometry">
            <mxPoint x="-22" y="10" as="offset" />
          </mxGeometry>
        </mxCell>
        <mxCell id="R8LKBf7fdfrHrlQRSJYs-10" value="" style="endArrow=classic;html=1;rounded=0;startArrow=classic;startFill=1;" parent="1" source="R8LKBf7fdfrHrlQRSJYs-5" target="R8LKBf7fdfrHrlQRSJYs-6" edge="1">
          <mxGeometry width="50" height="50" relative="1" as="geometry">
            <mxPoint x="556.5" y="630" as="sourcePoint" />
            <mxPoint x="323.5" y="516" as="targetPoint" />
          </mxGeometry>
        </mxCell>
        <mxCell id="R8LKBf7fdfrHrlQRSJYs-33" value="&lt;b&gt;&lt;font style=&quot;font-size: 16px;&quot;&gt;175&lt;/font&gt;&lt;/b&gt;" style="edgeLabel;html=1;align=center;verticalAlign=middle;resizable=0;points=[];" parent="R8LKBf7fdfrHrlQRSJYs-10" vertex="1" connectable="0">
          <mxGeometry x="0.619" y="1" relative="1" as="geometry">
            <mxPoint as="offset" />
          </mxGeometry>
        </mxCell>
        <mxCell id="R8LKBf7fdfrHrlQRSJYs-11" value="" style="endArrow=classic;html=1;startArrow=classic;startFill=1;rounded=0;" parent="1" source="R8LKBf7fdfrHrlQRSJYs-5" target="R8LKBf7fdfrHrlQRSJYs-2" edge="1">
          <mxGeometry width="50" height="50" relative="1" as="geometry">
            <mxPoint x="513" y="694" as="sourcePoint" />
            <mxPoint x="280" y="580" as="targetPoint" />
            <Array as="points" />
          </mxGeometry>
        </mxCell>
        <mxCell id="R8LKBf7fdfrHrlQRSJYs-24" value="&lt;b style=&quot;font-size: 16px;&quot;&gt;&amp;nbsp;24 &lt;br&gt;&lt;/b&gt;" style="edgeLabel;html=1;align=center;verticalAlign=middle;resizable=0;points=[];" parent="R8LKBf7fdfrHrlQRSJYs-11" vertex="1" connectable="0">
          <mxGeometry x="-0.0443" relative="1" as="geometry">
            <mxPoint x="4" y="-29" as="offset" />
          </mxGeometry>
        </mxCell>
        <mxCell id="R8LKBf7fdfrHrlQRSJYs-12" value="" style="endArrow=classic;html=1;rounded=0;startArrow=classic;startFill=1;" parent="1" source="R8LKBf7fdfrHrlQRSJYs-2" target="R8LKBf7fdfrHrlQRSJYs-6" edge="1">
          <mxGeometry width="50" height="50" relative="1" as="geometry">
            <mxPoint x="573" y="614" as="sourcePoint" />
            <mxPoint x="340" y="500" as="targetPoint" />
          </mxGeometry>
        </mxCell>
        <mxCell id="R8LKBf7fdfrHrlQRSJYs-34" value="&lt;b&gt;&lt;font style=&quot;font-size: 16px;&quot;&gt;&amp;nbsp;176&lt;/font&gt;&lt;/b&gt;" style="edgeLabel;html=1;align=center;verticalAlign=middle;resizable=0;points=[];" parent="R8LKBf7fdfrHrlQRSJYs-12" vertex="1" connectable="0">
          <mxGeometry x="0.5779" y="1" relative="1" as="geometry">
            <mxPoint x="-25" y="-6" as="offset" />
          </mxGeometry>
        </mxCell>
        <mxCell id="R8LKBf7fdfrHrlQRSJYs-13" value="" style="endArrow=classic;html=1;rounded=0;startArrow=classic;startFill=1;" parent="1" source="R8LKBf7fdfrHrlQRSJYs-5" target="R8LKBf7fdfrHrlQRSJYs-1" edge="1">
          <mxGeometry width="50" height="50" relative="1" as="geometry">
            <mxPoint x="613" y="604" as="sourcePoint" />
            <mxPoint x="380" y="490" as="targetPoint" />
          </mxGeometry>
        </mxCell>
        <mxCell id="R8LKBf7fdfrHrlQRSJYs-25" value="&lt;font style=&quot;font-size: 16px;&quot;&gt;&lt;b&gt;&amp;nbsp;25 &lt;/b&gt;&lt;br&gt;&lt;/font&gt;" style="edgeLabel;html=1;align=center;verticalAlign=middle;resizable=0;points=[];" parent="R8LKBf7fdfrHrlQRSJYs-13" vertex="1" connectable="0">
          <mxGeometry x="-0.0536" y="-3" relative="1" as="geometry">
            <mxPoint as="offset" />
          </mxGeometry>
        </mxCell>
        <mxCell id="R8LKBf7fdfrHrlQRSJYs-14" value="" style="endArrow=classic;html=1;rounded=0;startArrow=classic;startFill=1;" parent="1" source="R8LKBf7fdfrHrlQRSJYs-2" target="R8LKBf7fdfrHrlQRSJYs-7" edge="1">
          <mxGeometry width="50" height="50" relative="1" as="geometry">
            <mxPoint x="570" y="580" as="sourcePoint" />
            <mxPoint x="288.5" y="570" as="targetPoint" />
          </mxGeometry>
        </mxCell>
        <mxCell id="R8LKBf7fdfrHrlQRSJYs-29" value="&amp;nbsp;&lt;b&gt;&lt;font style=&quot;font-size: 16px;&quot;&gt;94&lt;/font&gt;&lt;/b&gt;" style="edgeLabel;html=1;align=center;verticalAlign=middle;resizable=0;points=[];" parent="R8LKBf7fdfrHrlQRSJYs-14" vertex="1" connectable="0">
          <mxGeometry x="-0.0431" y="1" relative="1" as="geometry">
            <mxPoint x="-73" y="-1" as="offset" />
          </mxGeometry>
        </mxCell>
        <mxCell id="R8LKBf7fdfrHrlQRSJYs-15" value="" style="endArrow=classic;html=1;rounded=0;startArrow=classic;startFill=1;" parent="1" source="R8LKBf7fdfrHrlQRSJYs-7" target="R8LKBf7fdfrHrlQRSJYs-6" edge="1">
          <mxGeometry width="50" height="50" relative="1" as="geometry">
            <mxPoint x="543" y="664" as="sourcePoint" />
            <mxPoint x="310" y="550" as="targetPoint" />
          </mxGeometry>
        </mxCell>
        <mxCell id="R8LKBf7fdfrHrlQRSJYs-28" value="&lt;b&gt;&lt;font style=&quot;font-size: 16px;&quot;&gt;&amp;nbsp;84 &lt;br&gt;&lt;/font&gt;&lt;/b&gt;" style="edgeLabel;html=1;align=center;verticalAlign=middle;resizable=0;points=[];" parent="R8LKBf7fdfrHrlQRSJYs-15" vertex="1" connectable="0">
          <mxGeometry x="-0.0236" y="-3" relative="1" as="geometry">
            <mxPoint as="offset" />
          </mxGeometry>
        </mxCell>
        <mxCell id="R8LKBf7fdfrHrlQRSJYs-16" value="" style="endArrow=classic;html=1;rounded=0;startArrow=classic;startFill=1;" parent="1" source="R8LKBf7fdfrHrlQRSJYs-5" target="R8LKBf7fdfrHrlQRSJYs-7" edge="1">
          <mxGeometry width="50" height="50" relative="1" as="geometry">
            <mxPoint x="493" y="710" as="sourcePoint" />
            <mxPoint x="260" y="596" as="targetPoint" />
          </mxGeometry>
        </mxCell>
        <mxCell id="R8LKBf7fdfrHrlQRSJYs-31" value="&lt;b&gt;&lt;font style=&quot;font-size: 16px;&quot;&gt;105&lt;/font&gt;&lt;/b&gt;" style="edgeLabel;html=1;align=center;verticalAlign=middle;resizable=0;points=[];" parent="R8LKBf7fdfrHrlQRSJYs-16" vertex="1" connectable="0">
          <mxGeometry x="0.0745" y="-1" relative="1" as="geometry">
            <mxPoint x="-133" y="85" as="offset" />
          </mxGeometry>
        </mxCell>
        <mxCell id="R8LKBf7fdfrHrlQRSJYs-17" value="" style="endArrow=classic;html=1;rounded=0;startArrow=classic;startFill=1;" parent="1" source="R8LKBf7fdfrHrlQRSJYs-6" target="R8LKBf7fdfrHrlQRSJYs-1" edge="1">
          <mxGeometry width="50" height="50" relative="1" as="geometry">
            <mxPoint x="703" y="560" as="sourcePoint" />
            <mxPoint x="470" y="446" as="targetPoint" />
          </mxGeometry>
        </mxCell>
        <mxCell id="R8LKBf7fdfrHrlQRSJYs-35" value="&lt;b&gt;&lt;font style=&quot;font-size: 16px;&quot;&gt;&amp;nbsp;179&lt;/font&gt;&lt;/b&gt;" style="edgeLabel;html=1;align=center;verticalAlign=middle;resizable=0;points=[];" parent="R8LKBf7fdfrHrlQRSJYs-17" vertex="1" connectable="0">
          <mxGeometry x="-0.0359" y="-1" relative="1" as="geometry">
            <mxPoint x="-71" y="-15" as="offset" />
          </mxGeometry>
        </mxCell>
        <mxCell id="R8LKBf7fdfrHrlQRSJYs-19" value="&lt;b&gt;&lt;font style=&quot;font-size: 14px;&quot;&gt;home&lt;/font&gt;&lt;/b&gt;&lt;br&gt;Hamburg&lt;br&gt;DE" style="ellipse;whiteSpace=wrap;html=1;fillColor=#E6E6E6;opacity=40;" parent="1" vertex="1">
          <mxGeometry x="325" y="130" width="100" height="70" as="geometry" />
        </mxCell>
        <mxCell id="R8LKBf7fdfrHrlQRSJYs-20" value="" style="endArrow=classic;html=1;rounded=0;startArrow=classic;startFill=1;opacity=40;" parent="1" source="R8LKBf7fdfrHrlQRSJYs-19" target="R8LKBf7fdfrHrlQRSJYs-7" edge="1">
          <mxGeometry width="50" height="50" relative="1" as="geometry">
            <mxPoint x="774" y="602" as="sourcePoint" />
            <mxPoint x="541" y="488" as="targetPoint" />
          </mxGeometry>
        </mxCell>
        <mxCell id="R8LKBf7fdfrHrlQRSJYs-32" value="&lt;b&gt;&lt;font style=&quot;font-size: 16px;&quot;&gt;112&lt;/font&gt;&lt;/b&gt;" style="edgeLabel;html=1;align=center;verticalAlign=middle;resizable=0;points=[];textOpacity=40;" parent="R8LKBf7fdfrHrlQRSJYs-20" vertex="1" connectable="0">
          <mxGeometry x="0.2964" relative="1" as="geometry">
            <mxPoint x="53" y="-75" as="offset" />
          </mxGeometry>
        </mxCell>
        <mxCell id="R8LKBf7fdfrHrlQRSJYs-21" value="" style="endArrow=classic;html=1;rounded=0;startArrow=classic;startFill=1;opacity=40;" parent="1" source="R8LKBf7fdfrHrlQRSJYs-19" target="R8LKBf7fdfrHrlQRSJYs-1" edge="1">
          <mxGeometry width="50" height="50" relative="1" as="geometry">
            <mxPoint x="784" y="612" as="sourcePoint" />
            <mxPoint x="551" y="498" as="targetPoint" />
          </mxGeometry>
        </mxCell>
        <mxCell id="R8LKBf7fdfrHrlQRSJYs-26" value="&lt;b&gt;&lt;font style=&quot;font-size: 16px;&quot;&gt;&amp;nbsp;26&lt;/font&gt;&lt;/b&gt;" style="edgeLabel;html=1;align=center;verticalAlign=middle;resizable=0;points=[];textOpacity=40;" parent="R8LKBf7fdfrHrlQRSJYs-21" vertex="1" connectable="0">
          <mxGeometry x="-0.2584" y="1" relative="1" as="geometry">
            <mxPoint y="17" as="offset" />
          </mxGeometry>
        </mxCell>
        <mxCell id="R8LKBf7fdfrHrlQRSJYs-22" value="" style="endArrow=classic;html=1;rounded=0;startArrow=classic;startFill=1;opacity=40;" parent="1" source="R8LKBf7fdfrHrlQRSJYs-19" target="R8LKBf7fdfrHrlQRSJYs-5" edge="1">
          <mxGeometry width="50" height="50" relative="1" as="geometry">
            <mxPoint x="794" y="622" as="sourcePoint" />
            <mxPoint x="561" y="508" as="targetPoint" />
          </mxGeometry>
        </mxCell>
        <mxCell id="R8LKBf7fdfrHrlQRSJYs-27" value="&lt;b&gt;&lt;font style=&quot;font-size: 16px;&quot;&gt;&amp;nbsp;40&lt;/font&gt;&lt;/b&gt;" style="edgeLabel;html=1;align=center;verticalAlign=middle;resizable=0;points=[];textOpacity=40;" parent="R8LKBf7fdfrHrlQRSJYs-22" vertex="1" connectable="0">
          <mxGeometry x="0.0021" y="1" relative="1" as="geometry">
            <mxPoint x="-2" y="3" as="offset" />
          </mxGeometry>
        </mxCell>
      </root>
    </mxGraphModel>
  </diagram>
</mxfile>
